<svg version="1.1" viewBox="0.0 0.0 304.2178477690289 315.0603674540682" fill="none" stroke="none" stroke-linecap="square" stroke-miterlimit="10" xmlns:xlink="http://www.w3.org/1999/xlink" xmlns="http://www.w3.org/2000/svg"><clipPath id="p.0"><path d="m0 0l304.21783 0l0 315.06036l-304.21783 0l0 -315.06036z" clip-rule="nonzero"/></clipPath><g clip-path="url(#p.0)"><path fill="#000000" fill-opacity="0.0" d="m0 0l304.21783 0l0 315.06036l-304.21783 0z" fill-rule="evenodd"/><path fill="#0b5394" d="m88.6706 29.724983l0 0c0 -15.864369 12.860619 -28.724983 28.724983 -28.724983l129.54216 0c7.618347 0 14.924652 3.0263734 20.311646 8.413353c5.386963 5.386979 8.41333 12.693291 8.41333 20.31163l0 114.89649c0 15.864365 -12.860596 28.724976 -28.724976 28.724976l-129.54216 0c-15.864365 0 -28.724983 -12.860611 -28.724983 -28.724976z" fill-rule="evenodd"/><path fill="#b45f06" d="m0.7624066 98.0032l0 0c0 -15.864365 12.860614 -28.724983 28.724983 -28.724983l129.54214 0c7.618347 0 14.924652 3.0263748 20.311646 8.413353c5.386978 5.386978 8.413345 12.693291 8.413345 20.31163l0 114.89649c0 15.864365 -12.860611 28.724976 -28.72499 28.724976l-129.54214 0c-15.86437 0 -28.724983 -12.860611 -28.724983 -28.724976z" fill-rule="evenodd"/><path fill="#38761d" d="m116.46318 170.41211l0 0c0 -15.867264 12.862961 -28.730225 28.730225 -28.730225l129.53166 0c7.6197205 0 14.927368 3.0269165 20.315338 8.414886c5.38797 5.3879547 8.414886 12.695602 8.414886 20.315338l0 114.91748c0 15.867279 -12.862946 28.730255 -28.730225 28.730255l-129.53166 0c-15.867264 0 -28.730225 -12.862976 -28.730225 -28.730255z" fill-rule="evenodd"/></g></svg>