<svg version="1.1" viewBox="0.0 0.0 30.0 30.0" fill="none" stroke="none" stroke-linecap="square" stroke-miterlimit="10" xmlns:xlink="http://www.w3.org/1999/xlink" xmlns="http://www.w3.org/2000/svg"><clipPath id="p.0"><path d="m0 0l30.0 0l0 30.0l-30.0 0l0 -30.0z" clip-rule="nonzero"/></clipPath><g clip-path="url(#p.0)"><path fill="#000000" fill-opacity="0.0" d="m0 0l30.0 0l0 30.0l-30.0 0z" fill-rule="evenodd"/><path fill="#ffffff" d="m15.22469 19.435888c-0.07130337 0.26465416 -0.163167 0.63035965 -0.30183697 1.0341206c-0.13867092 0.40376282 -0.32021046 0.91776085 -0.5301838 1.3884525c-0.20997429 0.47068977 -0.4820652 1.0367451 -0.7296591 1.4356956c-0.24759388 0.39894867 -0.48293972 0.67235184 -0.75590515 0.958004c-0.27296638 0.28565216 -0.59623814 0.57961464 -0.8818903 0.75590515c-0.28565216 0.17629051 -0.58398914 0.2427826 -0.83202076 0.30183792c-0.24803162 0.05905533 -0.4457569 0.056430817 -0.656168 0.05249405c-0.21041107 -0.0039367676 -0.39632607 -0.02974701 -0.6062994 -0.07611656c-0.20997334 -0.046369553 -0.39720058 -0.071741104 -0.6535435 -0.20209885c-0.2563429 -0.13035965 -0.6198597 -0.3950138 -0.88451385 -0.5800533c-0.2646551 -0.18503952 -0.4724412 -0.32852173 -0.70341253 -0.5301838c-0.23097086 -0.20166206 -0.48031473 -0.45713043 -0.68241453 -0.6797886c-0.2020998 -0.22266006 -0.38320208 -0.45013237 -0.5301838 -0.656168c-0.14698172 -0.20603752 -0.25940514 -0.37007904 -0.35170603 -0.5800533c-0.09230089 -0.20997429 -0.15179348 -0.45319366 -0.2020998 -0.6797905c-0.05030632 -0.22659683 -0.083114624 -0.48643875 -0.099737644 -0.6797905c-0.01662302 -0.19334984 -0.020997047 -0.31233597 0 -0.48031425c0.020997524 -0.16797829 0.05030632 -0.35126877 0.12598419 -0.5275593c0.07567835 -0.17629051 0.18110275 -0.36176682 0.328084 -0.5301838c0.14698172 -0.16841507 0.36482954 -0.3289585 0.5538058 -0.48031425c0.18897629 -0.15135574 0.33202124 -0.28521538 0.58005285 -0.4278221c0.24803114 -0.14260674 0.6224842 -0.30621147 0.90813637 -0.4278202c0.28565216 -0.12161064 0.50743675 -0.20516205 0.80577374 -0.30183792c0.29833794 -0.09667587 0.50525 -0.14785767 0.984252 -0.2782154c0.47900295 -0.13035965 1.0958014 -0.27690315 1.8897638 -0.50393677c0.79396343 -0.22703362 2.264655 -0.76552963 2.8740158 -0.8582678c0.60936165 -0.092739105 0.6644802 0.07480335 0.7821522 0.30183697c0.11767292 0.22703362 -0.025371552 0.6106739 -0.076114655 1.0603676c-0.050744057 0.44969368 -0.1692915 1.2725277 -0.22834682 1.6377945c-0.05905533 0.3652668 -0.054680824 0.28915215 -0.12598419 0.5538063z" fill-rule="evenodd"/><path fill="#ffffff" d="m14.749624 19.435888c0.07130432 0.26465416 0.16316795 0.63035965 0.30183792 1.0341206c0.13866997 0.40376282 0.3202095 0.91776085 0.5301838 1.3884525c0.20997334 0.47068977 0.4820652 1.0367451 0.7296581 1.4356956c0.24759483 0.39894867 0.48294067 0.67235184 0.75590515 0.958004c0.27296638 0.28565216 0.5962391 0.57961464 0.88189125 0.75590515c0.28565025 0.17629051 0.5839882 0.2427826 0.8320198 0.30183792c0.24803162 0.05905533 0.4457569 0.056430817 0.656168 0.05249405c0.21041107 -0.0039367676 0.39632607 -0.02974701 0.60630035 -0.07611656c0.20997238 -0.046369553 0.39719963 -0.071741104 0.6535435 -0.20209885c0.25634193 -0.13035965 0.6198597 -0.3950138 0.88451385 -0.5800533c0.26465416 -0.18503952 0.47244072 -0.32852173 0.7034111 -0.5301838c0.23097229 -0.20166206 0.48031616 -0.45713043 0.682415 -0.6797886c0.20210075 -0.22266006 0.3832016 -0.45013237 0.5301838 -0.656168c0.1469822 -0.20603752 0.25940514 -0.37007904 0.35170555 -0.5800533c0.09230232 -0.20997429 0.15179443 -0.45319366 0.20210075 -0.6797905c0.05030632 -0.22659683 0.083114624 -0.48643875 0.09973717 -0.6797905c0.016622543 -0.19334984 0.020998001 -0.31233597 0 -0.48031425c-0.020998001 -0.16797829 -0.05030632 -0.35126877 -0.12598419 -0.5275593c-0.07567787 -0.17629051 -0.18110275 -0.36176682 -0.32808304 -0.5301838c-0.1469822 -0.16841507 -0.36483002 -0.3289585 -0.5538063 -0.48031425c-0.18897629 -0.15135574 -0.3320217 -0.28521538 -0.5800533 -0.4278221c-0.24803162 -0.14260674 -0.6224842 -0.30621147 -0.90813637 -0.4278202c-0.28565216 -0.12161064 -0.50743675 -0.20516205 -0.8057747 -0.30183792c-0.29833603 -0.09667587 -0.505249 -0.14785767 -0.984251 -0.2782154c-0.479002 -0.13035965 -1.0958004 -0.27690315 -1.8897648 -0.50393677c-0.7939625 -0.22703362 -2.2646532 -0.76552963 -2.8740149 -0.8582678c-0.60936165 -0.092739105 -0.66447926 0.07480335 -0.7821522 0.30183697c-0.11767292 0.22703362 0.025371552 0.6106739 0.07611561 1.0603676c0.050743103 0.44969368 0.1692915 1.2725277 0.22834587 1.6377945c0.05905533 0.3652668 0.054680824 0.28915215 0.12598419 0.5538063z" fill-rule="evenodd"/><path fill="#ffffff" d="m14.721238 15.049022c0.104987144 -0.25240612 0.2064743 -0.63517094 0.4041996 -1.0341215c0.1977253 -0.39894962 0.5048113 -0.90594864 0.7821522 -1.35958c0.2773409 -0.45363045 0.59623814 -0.9461937 0.8818903 -1.3622046c0.28565025 -0.4160099 0.53368187 -0.75590515 0.8320198 -1.1338577c0.29833794 -0.37795353 0.6342964 -0.75546837 0.9580059 -1.1338587c0.3237095 -0.3783903 0.6019249 -0.7331581 0.984251 -1.1364827c0.38232803 -0.4033246 0.91513634 -0.93919516 1.3097115 -1.2834649c0.39457703 -0.34426928 0.6587925 -0.51312304 1.0577431 -0.7821522c0.39895058 -0.26902866 0.9072628 -0.6469817 1.3359585 -0.83202076c0.42869568 -0.18503952 0.8661423 -0.22353458 1.2362194 -0.2782154c0.37007904 -0.054680824 0.69029045 -0.12554693 0.9842529 -0.049868584c0.29396248 0.07567787 0.5778656 0.25196838 0.77952766 0.50393677c0.20166206 0.25196838 0.35870552 0.59186363 0.43044662 1.007874c0.071741104 0.41601038 0.025371552 0.8412075 0 1.4881892c-0.025371552 0.64698124 -0.105861664 1.675415 -0.15223122 2.3937006c-0.046369553 0.71828556 -0.058618546 1.2812777 -0.12598419 1.9160109c-0.06736755 0.6347332 -0.14391899 1.3626423 -0.2782154 1.8923883c-0.13429642 0.52974606 -0.25896835 0.8744526 -0.5275593 1.286089c-0.26859093 0.41163635 -0.7392826 0.88976383 -1.0839901 1.1837263c-0.34470558 0.2939644 -0.61854744 0.4286976 -0.984251 0.5800533c-0.3657055 0.15135574 -0.8110237 0.2484684 -1.2099743 0.32808304c-0.39895058 0.07961655 -0.72572136 0.13298416 -1.1837273 0.1496067c-0.458004 0.016622543 -0.7239723 0.017061234 -1.5643044 -0.04986763c-0.84033203 -0.06692886 -2.6793518 -0.20472527 -3.4776897 -0.35170746c-0.79833794 -0.14698029 -1.0433073 -0.28652573 -1.312336 -0.5301838c-0.26902866 -0.24365616 -0.2891512 -0.6964121 -0.30183792 -0.9317579c-0.012685776 -0.23534489 0.12073517 -0.22790909 0.22572231 -0.48031425z" fill-rule="evenodd"/><path fill="#ffffff" d="m15.275595 15.049022c-0.10498619 -0.25240612 -0.2064743 -0.63517094 -0.4041996 -1.0341215c-0.1977253 -0.39894962 -0.5048113 -0.90594864 -0.7821522 -1.35958c-0.27733994 -0.45363045 -0.5962372 -0.9461937 -0.88188934 -1.3622046c-0.28565216 -0.4160099 -0.5336838 -0.75590515 -0.83202076 -1.1338577c-0.29833794 -0.37795353 -0.6342964 -0.75546837 -0.9580059 -1.1338587c-0.3237095 -0.3783903 -0.60192394 -0.7331581 -0.984252 -1.1364827c-0.38232708 -0.4033246 -0.9151354 -0.93919516 -1.3097105 -1.2834649c-0.39457607 -0.34426928 -0.65879345 -0.51312304 -1.0577431 -0.7821522c-0.3989501 -0.26902866 -0.90726185 -0.6469817 -1.335958 -0.83202076c-0.42869663 -0.18503952 -0.8661418 -0.22353458 -1.2362204 -0.2782154c-0.37007904 -0.054680824 -0.690289 -0.12554693 -0.984252 -0.049868584c-0.29396343 0.07567787 -0.5778656 0.25196838 -0.77952766 0.50393677c-0.2016623 0.25196838 -0.35870528 0.59186363 -0.4304464 1.007874c-0.071740866 0.41601038 -0.02537179 0.8412075 0 1.4881892c0.02537179 0.64698124 0.1058619 1.675415 0.15223098 2.3937006c0.046369314 0.71828556 0.05861783 1.2812777 0.12598443 1.9160109c0.06736636 0.6347332 0.14391947 1.3626423 0.27821517 1.8923883c0.1342957 0.52974606 0.2589674 0.8744526 0.5275588 1.286089c0.2685914 0.41163635 0.7392826 0.88976383 1.0839896 1.1837263c0.344707 0.2939644 0.6185479 0.4286976 0.984252 0.5800533c0.36570454 0.15135574 0.8110237 0.2484684 1.2099738 0.32808304c0.39895058 0.07961655 0.72572136 0.13298416 1.1837273 0.1496067c0.45800495 0.016622543 0.72397137 0.017061234 1.5643044 -0.04986763c0.84033203 -0.06692886 2.6793528 -0.20472527 3.4776897 -0.35170746c0.79833794 -0.14698029 1.0433073 -0.28652573 1.312336 -0.5301838c0.26902962 -0.24365616 0.28915215 -0.6964121 0.30183792 -0.9317579c0.012685776 -0.23534489 -0.12073517 -0.22790909 -0.22572231 -0.48031425z" fill-rule="evenodd"/></g></svg>