<svg version="1.1" viewBox="0.0 0.0 100.0 100.0" fill="none" stroke="none" stroke-linecap="square" stroke-miterlimit="10" xmlns:xlink="http://www.w3.org/1999/xlink" xmlns="http://www.w3.org/2000/svg"><clipPath id="p.0"><path d="m0 0l100.0 0l0 100.0l-100.0 0l0 -100.0z" clip-rule="nonzero"/></clipPath><g clip-path="url(#p.0)"><path fill="#434343" d="m0 0l100.0 0l0 100.0l-100.0 0z" fill-rule="evenodd"/><path fill="#ffffff" d="m0 0l50.0 0l0 0c27.614235 -1.2126596E-14 50.0 22.385763 50.0 50.0c0 27.614235 -22.385765 50.0 -50.0 50.0l-50.0 0z" fill-rule="evenodd"/><path fill="#cfe2f3" d="m50.0 50.0c0 0 0 0 0 0c0 0 0 0 0 0c0 0 0 0 0 0c0 0 0 0 0 0c0 0 0 0 0 0c0 0 0 0 0 0c0 0 0 0 0 0c0 0 0 0 0 0c0 0 0 0 0 0c0 0 0 0 0 0c0 0 0 0 0 0c0 0 0 0 0 0c0 0 0 0 0 0c0 0 0 0 0 0c0 0 0 0 0 0c0 0 0 0 0 0c0 0 0 0 0 0c0 0 0 0 0 0c0 0 0 0 0 0l0 0z" fill-rule="evenodd"/><path stroke="#000000" stroke-width="1.0" stroke-linejoin="round" stroke-linecap="butt" d="m50.0 50.0c0 0 0 0 0 0c0 0 0 0 0 0c0 0 0 0 0 0c0 0 0 0 0 0c0 0 0 0 0 0c0 0 0 0 0 0c0 0 0 0 0 0c0 0 0 0 0 0c0 0 0 0 0 0c0 0 0 0 0 0c0 0 0 0 0 0c0 0 0 0 0 0c0 0 0 0 0 0c0 0 0 0 0 0c0 0 0 0 0 0c0 0 0 0 0 0c0 0 0 0 0 0c0 0 0 0 0 0c0 0 0 0 0 0l0 0z" fill-rule="evenodd"/><path fill="#ffffff" d="m50.0 50.0c0 0 0 0 0 0c0 0 0 0 0 0c0 0 0 0 0 0c0 0 0 0 0 0c0 0 0 0 0 0c0 0 0 0 0 0c0 0 0 0 0 0c0 0 0 0 0 0c0 0 0 0 0 0c0 0 0 0 0 0c0 0 0 0 0 0c0 0 0 0 0 0c0 0 0 0 0 0c0 0 0 0 0 0c0 0 0 0 0 0c0 0 0 0 0 0c0 0 0 0 0 0c0 0 0 0 0 0c0 0 0 0 0 0l0 0z" fill-rule="evenodd"/><path fill="#434343" d="m54.88204 55.94577l29.833767 -44.057007l29.833763 0l-59.66753 88.11401z" fill-rule="evenodd"/><path fill="#434343" d="m54.881687 62.965733l-25.064058 -37.030994l-25.064056 0l50.128113 74.06199z" fill-rule="evenodd"/><path fill="#434343" d="m49.78141 63.456383l9.647125 -14.257027l9.647125 0l-19.29425 28.514053z" fill-rule="evenodd"/><path fill="#434343" d="m4.7532115 25.800999l0 0c0 -0.40811157 1.3170128 -0.7940445 3.6613116 -1.072895c2.3442984 -0.27885246 5.5238485 -0.42778015 8.839187 -0.41402435l0 0c6.9038353 0.02864647 12.5005 0.7408085 12.5005 1.5906582l0 0c0 0.8498497 -5.5966644 1.5155659 -12.5005 1.4869194l0 0c-6.9038343 -0.02864647 -12.500498 -0.7408085 -12.500498 -1.5906582z" fill-rule="evenodd"/><path fill="#434343" d="m84.77312 11.9403715l0 0c0 -0.40811157 1.5683975 -0.792222 4.360153 -1.067831c2.7917557 -0.27560997 6.5781937 -0.42014027 10.526337 -0.40179825l0 0c8.2215805 0.03819561 14.886482 0.75809765 14.886482 1.6079473l0 0c0 0.8498497 -6.6649017 1.5078259 -14.886482 1.4696302l0 0c-8.2215805 -0.03819561 -14.88649 -0.7580986 -14.88649 -1.6079483z" fill-rule="evenodd"/></g></svg>