<svg version="1.1" viewBox="0.0 0.0 30.0 30.0" fill="none" stroke="none" stroke-linecap="square" stroke-miterlimit="10" xmlns:xlink="http://www.w3.org/1999/xlink" xmlns="http://www.w3.org/2000/svg"><clipPath id="p.0"><path d="m0 0l30.0 0l0 30.0l-30.0 0l0 -30.0z" clip-rule="nonzero"/></clipPath><g clip-path="url(#p.0)"><path fill="#000000" fill-opacity="0.0" d="m0 0l30.0 0l0 30.0l-30.0 0z" fill-rule="evenodd"/><path fill="#000000" fill-opacity="0.0" d="m-6.92126 -6.8792653l43.84252 0l0 40.755905l-43.84252 0z" fill-rule="evenodd"/><path fill="#e69138" d="m15.005342 26.163063q-2.375 0 -4.359375 -0.796875q-1.984376 -0.78125 -3.437501 -2.234375q-1.4375 -1.4375 -2.234375 -3.421875q-0.78125 -1.984375 -0.78125 -4.359375q0 -2.359375 0.78125 -4.34375q0.796875 -1.984375 2.234375 -3.4375005q1.453125 -1.453125 3.437501 -2.234375q1.984375 -0.796875 4.359375 -0.796875q2.359376 0 4.343751 0.796875q1.984375 0.78125 3.4375 2.234375q1.453125 1.4531255 2.234375 3.4375005q0.796875 1.984375 0.796875 4.34375q0 1.984375 -0.5625 3.515625q-0.546875 1.515625 -1.515625 2.390625q-0.96875 0.875 -2.25 0.875q-1.171875 0 -1.9375 -0.625q-0.75 -0.625 -0.75 -1.734375l0 -0.96875q-0.40625 0.734375 -1.0625 1.3125q-0.65625 0.578125 -1.421875 0.90625q-0.76562595 0.3125 -1.531251 0.3125q-1.6875 0 -2.984375 -0.765625q-1.28125 -0.78125 -2.015625 -2.125q-0.73437595 -1.34375 -0.73437595 -3.09375q0 -1.75 0.76562595 -3.09375q0.765625 -1.34375 2.109375 -2.109375q1.34375 -0.765625 3.078125 -0.765625q1.750001 0 3.093751 0.765625q1.34375 0.765625 2.109375 2.109375q0.765625 1.34375 0.765625 3.09375l0 3.421875q0 0.53125 0.171875 0.828125q0.171875 0.296875 0.546875 0.296875q0.515625 0 0.953125 -0.578125q0.4375 -0.578125 0.6875 -1.609375q0.265625 -1.03125 0.265625 -2.359375q0 -1.890625 -0.640625 -3.453125q-0.625 -1.578125 -1.78125 -2.71875q-1.140625 -1.15625 -2.71875 -1.7812505q-1.5625 -0.640625 -3.453126 -0.640625q-1.875 0 -3.453125 0.640625q-1.578125 0.6250005 -2.734376 1.7812505q-1.15625 1.140625 -1.78125 2.71875q-0.625 1.5625 -0.625 3.453125q0 1.875 0.625 3.453125q0.625 1.578125 1.78125 2.734375q1.156251 1.15625 2.734376 1.78125q1.578125 0.625 3.453125 0.625q0.84375 0 1.828126 -0.203125q1.0 -0.1875 1.703125 -0.515625q0.734375 -0.359375 1.1875 -0.09375q0.453125 0.28125 0.453125 1.078125q0 0.578125 -0.65625 1.015625q-0.65625 0.4375 -1.828125 0.6875q-1.171875 0.25 -2.687501 0.25zm0 -7.078125q1.109376 0 1.937501 -0.46875q0.828125 -0.484375 1.3125 -1.328125q0.484375 -0.84375 0.484375 -1.9375q0 -1.109375 -0.484375 -1.9375q-0.484375 -0.828125 -1.3125 -1.3125q-0.828125 -0.484375 -1.937501 -0.484375q-1.109375 0 -1.953125 0.484375q-0.828125 0.484375 -1.3125 1.3125q-0.46875 0.828125 -0.46875 1.9375q0 1.09375 0.46875 1.9375q0.484375 0.84375 1.3125 1.328125q0.84375 0.46875 1.953125 0.46875z" fill-rule="nonzero"/></g></svg>