<svg version="1.1" viewBox="0.0 0.0 100.0 100.0" fill="none" stroke="none" stroke-linecap="square" stroke-miterlimit="10" xmlns:xlink="http://www.w3.org/1999/xlink" xmlns="http://www.w3.org/2000/svg"><clipPath id="p.0"><path d="m0 0l100.0 0l0 100.0l-100.0 0l0 -100.0z" clip-rule="nonzero"/></clipPath><g clip-path="url(#p.0)"><path fill="#000000" fill-opacity="0.0" d="m0 0l100.0 0l0 100.0l-100.0 0z" fill-rule="evenodd"/><path fill="#ffffff" d="m0 50.001312l0 0c0 -27.614237 22.385763 -50.0 50.0 -50.0l0 0c13.260826 0 25.978523 5.2678423 35.35534 14.644661c9.376816 9.37682 14.644661 22.094513 14.644661 35.35534l0 0c0 27.614235 -22.385765 50.0 -50.0 50.0l0 0c-27.614237 0 -50.0 -22.385765 -50.0 -50.0z" fill-rule="evenodd"/><path fill="#434343" d="m33.36747 36.057095c4.280842 13.367455 -16.654854 11.574802 -9.874014 -14.149607c26.528872 2.5748024 20.952757 22.79265 9.874014 14.149607z" fill-rule="evenodd"/><path fill="#434343" d="m66.53509 36.057095c-4.280842 13.367455 16.654854 11.574802 9.874016 -14.149607c-26.528873 2.5748024 -20.952759 22.79265 -9.874016 14.149607z" fill-rule="evenodd"/><path fill="#434343" d="m49.850395 50.002625l0 0c0 -11.602329 7.1493416 -21.007874 15.968506 -21.007874l0 0c4.2351074 0 8.296761 2.2133236 11.291435 6.1530647c2.9946747 3.9397392 4.677063 9.283173 4.677063 14.854809l0 0c0 11.602329 -7.149338 21.007874 -15.968498 21.007874l0 0c-8.819164 0 -15.968506 -9.405544 -15.968506 -21.007874z" fill-rule="evenodd"/><path fill="#434343" d="m18.228346 50.0l0 0c0 -11.602329 7.1493435 -21.007874 15.968504 -21.007874l0 0c4.235111 0 8.296764 2.2133236 11.291439 6.1530647c2.9946747 3.9397392 4.677067 9.283173 4.677067 14.854809l0 0c0 11.602329 -7.1493454 21.007874 -15.968506 21.007874l0 0c-8.81916 0 -15.968504 -9.405544 -15.968504 -21.007874z" fill-rule="evenodd"/><path fill="#434343" d="m20.897638 42.968502l0 0c0 -9.601925 13.02957 -17.385824 29.102362 -17.385824l0 0c16.072792 0 29.102364 7.7838993 29.102364 17.385824l0 0c0 9.601929 -13.029572 17.38583 -29.102364 17.38583l0 0c-16.072792 0 -29.102362 -7.783901 -29.102362 -17.38583z" fill-rule="evenodd"/><path fill="#434343" d="m20.897638 57.7979l0 0c0 -9.601929 13.02957 -17.385826 29.102362 -17.385826l0 0c16.072792 0 29.102364 7.7838974 29.102364 17.385826l0 0c0 9.601925 -13.029572 17.385822 -29.102364 17.385822l0 0c-16.072792 0 -29.102362 -7.7838974 -29.102362 -17.385822z" fill-rule="evenodd"/><path fill="#434343" d="m47.509274 71.00787l5.16518 0l0 0c2.5770073 0 5.0484695 1.0237122 6.8706894 2.845932c1.8222198 1.8222198 2.845932 4.293686 2.845932 6.8706894l0 17.527473c0 1.1444092E-4 -9.1552734E-5 2.0599365E-4 -2.0217896E-4 2.0599365E-4l-24.59822 -2.0599365E-4l0 0c-1.1444092E-4 0 -2.0599365E-4 -9.1552734E-5 -2.0599365E-4 -2.0599365E-4l2.0599365E-4 -17.527267l0 0c0 -5.3663406 4.350281 -9.716621 9.716621 -9.716621z" fill-rule="evenodd"/><path fill="#434343" d="m38.00011 79.87412c-1.2187233 0.041557312 -2.3643913 0.8862686 -3.312336 1.1259842c-0.94794464 0.2397232 -1.4899406 0.2913437 -2.375328 0.31233978c-0.88539124 0.020996094 -2.0726166 0.011375427 -2.9370098 -0.18635559c-0.8643913 -0.19772339 -1.5201225 -0.5415573 -2.2493439 -1.0c-0.72922134 -0.4584427 -1.4798775 -1.031929 -2.1259842 -1.7506561c-0.6461067 -0.7187195 -1.2817135 -1.8635178 -1.7506561 -2.561676c-0.46894073 -0.6981659 -0.5109348 -1.043747 -1.0629921 -1.6272964c-0.55205536 -0.5835495 -1.4059486 -1.3429565 -2.2493439 -1.8740158c-0.8433933 -0.53105927 -1.9571304 -1.0520554 -2.8110237 -1.3123398c-0.8538933 -0.2602768 -1.6872253 -0.29090118 -2.312335 -0.24934387c-0.6251097 0.041557312 -1.3547688 0.123802185 -1.4383202 0.49868774c-0.08355236 0.3748932 0.45800495 1.2506561 0.9370079 1.7506561c0.479002 0.5 1.458005 0.86396027 1.937007 1.2493439c0.4790039 0.38539124 0.5306225 0.61505127 0.9370079 1.0629959c0.40638733 0.44794464 0.9908142 0.8643875 1.5013123 1.6246719c0.51049995 0.7602768 1.1552944 2.0516205 1.5616798 2.937004c0.40638733 0.88539124 0.41819763 1.5835571 0.8766403 2.375328c0.4584427 0.79177856 1.0927391 1.6876678 1.8740158 2.375328c0.7812786 0.68766785 1.6780415 1.2922134 2.8136482 1.7506561c1.1356087 0.4584427 2.3232727 0.8333359 4.0 1.0c1.6767292 0.16667175 4.6749783 0.10411835 6.0603695 0c1.3853874 -0.10411072 1.0643044 0.021003723 2.2519684 -0.62467194c1.187664 -0.645668 4.228344 -2.2493439 4.874016 -3.2493439c0.645668 -1.0 -0.16666794 -2.146103 -1.0 -2.7506561c-0.8333359 -0.6045456 -2.7812767 -0.91819763 -4.0 -0.8766403z" fill-rule="evenodd"/><path fill="#434343" d="m62.96063 97.92126l0 0c0 1.113266 -5.8026695 2.015747 -12.9606285 2.015747c-7.157959 0 -12.9606285 -0.9024811 -12.9606285 -2.015747l0 0c8.505413 0.3359604 17.415844 0.3359604 25.921257 0z" fill-rule="evenodd"/><path fill="#434343" d="m37.983704 96.328316l0 0c0.52184296 0.2957077 0.7333603 0.9161682 0.4724388 1.3858261c-0.26092148 0.4696579 -0.8954773 0.610672 -1.4173203 0.31495667l0 0c0.46751785 -0.4688263 0.79232025 -1.0534744 0.94488144 -1.7007828z" fill-rule="evenodd"/><path fill="#434343" d="m62.015198 96.328316l0 0c-0.52184296 0.2957077 -0.7333641 0.9161682 -0.4724388 1.3858261c0.26092148 0.4696579 0.8954773 0.610672 1.4173203 0.31495667l0 0c-0.46751785 -0.4688263 -0.79232025 -1.0534744 -0.94488144 -1.7007828z" fill-rule="evenodd"/></g></svg>