<svg version="1.1" viewBox="0.0 0.0 30.0 30.0" fill="none" stroke="none" stroke-linecap="square" stroke-miterlimit="10" xmlns:xlink="http://www.w3.org/1999/xlink" xmlns="http://www.w3.org/2000/svg"><clipPath id="p.0"><path d="m0 0l30.0 0l0 30.0l-30.0 0l0 -30.0z" clip-rule="nonzero"/></clipPath><g clip-path="url(#p.0)"><path fill="#000000" fill-opacity="0.0" d="m0 0l30.0 0l0 30.0l-30.0 0z" fill-rule="evenodd"/><path fill="#ffffff" d="m3.8582678 11.217848l4.8503933 0l0 14.740158l-4.8503933 0z" fill-rule="evenodd"/><path fill="#ffffff" d="m11.511811 11.217848l4.8503942 0l0 14.740158l-4.8503942 0z" fill-rule="evenodd"/><path fill="#ffffff" d="m21.56168 17.446194l4.8503933 0l0 8.503937l-4.8503933 0z" fill-rule="evenodd"/><path fill="#ffffff" d="m3.480315 6.5984254l0 0c0 -1.443768 1.2550128 -2.6141734 2.8031495 -2.6141734l0 0c1.5481367 0 2.8031502 1.1704054 2.8031502 2.6141734l0 0c0 1.443768 -1.2550135 2.6141734 -2.8031502 2.6141734l0 0c-1.5481367 0 -2.8031495 -1.1704054 -2.8031495 -2.6141734z" fill-rule="evenodd"/><path fill="#ffffff" d="m21.579065 17.547083c-0.05861664 -0.2817154 -0.06692886 -0.51312256 -0.12598419 -0.7821522c-0.05905342 -0.2690277 -0.115047455 -0.5927391 -0.22834587 -0.83202076c-0.113298416 -0.23928261 -0.28346443 -0.43175888 -0.45144272 -0.6036749c-0.1679802 -0.17191601 -0.3713913 -0.322834 -0.5564308 -0.42782116c-0.18503952 -0.104987144 -0.3565178 -0.15573025 -0.5538063 -0.2020998c-0.19728851 -0.046369553 -0.42388344 -0.07611561 -0.62992096 -0.07611561c-0.20603752 0 -0.40463638 0.029746056 -0.60629845 0.07611561c-0.20166397 0.046369553 -0.40201378 0.088801384 -0.60367584 0.2020998c-0.20166206 0.113298416 -0.42125893 0.29308796 -0.60629845 0.4776907c-0.18503952 0.18460178 -0.35695648 0.38188934 -0.50393677 0.62992096c-0.1469822 0.24803162 -0.24365807 0.4759407 -0.37795258 0.85826683c-0.13429642 0.38232803 -0.31846046 1.4317589 -0.4278221 1.4356956c-0.10936165 0.0039367676 -0.13560772 -1.0214348 -0.22834682 -1.4120731c-0.09273815 -0.39063835 -0.315835 -0.59142494 -0.328084 -0.9317579c-0.012248039 -0.34033298 0.09055138 -0.67760277 0.25459385 -1.1102362c0.16404152 -0.4326334 0.506999 -1.1032372 0.7296591 -1.4855642c0.22265816 -0.38232803 0.3709526 -0.5520563 0.60629845 -0.8083992c0.23534584 -0.2563429 0.5664921 -0.54899406 0.8057747 -0.7296591c0.23928261 -0.18066502 0.39457512 -0.24059486 0.62992096 -0.35433102c0.23534584 -0.1137352 0.49650002 -0.24015713 0.7821522 -0.328084c0.28565216 -0.08792591 0.5831146 -0.16185474 0.9317589 -0.19947433c0.34864426 -0.037620544 0.77340317 -0.055556297 1.1601048 -0.026247025c0.38670158 0.029309273 0.79440117 0.10542393 1.1601048 0.2020998c0.36570358 0.09667492 0.71084785 0.22266006 1.0341206 0.37795258c0.3232727 0.15529346 0.6281719 0.34383202 0.90551186 0.5538063c0.27733994 0.20997334 0.53149605 0.4116354 0.75852966 0.70603657c0.22703552 0.29440022 0.44838142 0.7283459 0.60367584 1.0603676c0.15529251 0.33202076 0.22703362 0.5958004 0.32808304 0.9317579c0.10104942 0.33595848 0.21959877 0.6933508 0.2782154 1.0839901c0.058618546 0.3906374 0.09055138 0.8482065 0.07349014 1.2598429c-0.017059326 0.41163445 0.11811066 0.991251 -0.17585182 1.2099724c-0.2939644 0.2187233 -0.97462845 0.07305336 -1.5879269 0.10236359c-0.6132984 0.02930832 -1.621172 0.06517792 -2.0918636 0.07349014c-0.47069168 0.008312225 -0.5726166 0.1316719 -0.73228264 -0.023622513c-0.15966797 -0.15529251 -0.16710472 -0.626421 -0.22572327 -0.90813637z" fill-rule="evenodd"/></g></svg>