<svg version="1.1" viewBox="0.0 0.0 30.0 30.0" fill="none" stroke="none" stroke-linecap="square" stroke-miterlimit="10" xmlns:xlink="http://www.w3.org/1999/xlink" xmlns="http://www.w3.org/2000/svg"><clipPath id="p.0"><path d="m0 0l30.0 0l0 30.0l-30.0 0l0 -30.0z" clip-rule="nonzero"/></clipPath><g clip-path="url(#p.0)"><path fill="#000000" fill-opacity="0.0" d="m0 0l30.0 0l0 30.0l-30.0 0z" fill-rule="evenodd"/><path fill="#000000" fill-opacity="0.0" d="m20.16846 5.1691275l0 0c3.060999 2.8544607 3.2284317 7.649888 0.37397003 10.710887q-3.913557 4.196726 -4.9760876 11.052109q-1.5380716 -6.7645817 -5.7347984 -10.678139l0 0c-3.060999 -2.8544607 -3.2284312 -7.649888 -0.37397003 -10.710887l0 0c2.8544607 -3.0609987 7.649887 -3.2284307 10.710886 -0.37397003z" fill-rule="evenodd"/><path stroke="#e69138" stroke-width="3.0" stroke-linejoin="round" stroke-linecap="butt" d="m20.16846 5.1691275l0 0c3.060999 2.8544607 3.2284317 7.649888 0.37397003 10.710887q-3.913557 4.196726 -4.9760876 11.052109q-1.5380716 -6.7645817 -5.7347984 -10.678139l0 0c-3.060999 -2.8544607 -3.2284312 -7.649888 -0.37397003 -10.710887l0 0c2.8544607 -3.0609987 7.649887 -3.2284307 10.710886 -0.37397003z" fill-rule="evenodd"/><path fill="#e69138" d="m12.199964 10.712283l0 0c0 -1.5463867 1.2535944 -2.7999806 2.799981 -2.7999806l0 0c0.74260044 0 1.4547863 0.29499674 1.9798851 0.82009554c0.5250988 0.52509785 0.82009506 1.2372847 0.82009506 1.9798851l0 0c0 1.5463867 -1.2535934 2.799981 -2.7999802 2.799981l0 0c-1.5463867 0 -2.799981 -1.2535944 -2.799981 -2.799981z" fill-rule="evenodd"/></g></svg>