<svg version="1.1" viewBox="0.0 0.0 182.0 42.0" fill="none" stroke="none" stroke-linecap="square" stroke-miterlimit="10" xmlns:xlink="http://www.w3.org/1999/xlink" xmlns="http://www.w3.org/2000/svg"><clipPath id="p.0"><path d="m0 0l182.0 0l0 42.0l-182.0 0l0 -42.0z" clip-rule="nonzero"/></clipPath><g clip-path="url(#p.0)"><path fill="#000000" fill-opacity="0.0" d="m0 0l182.0 0l0 42.0l-182.0 0z" fill-rule="evenodd"/><path fill="#000000" fill-opacity="0.0" d="m2.5249217 -6.062992l184.45436 0l0 55.14667l-184.45436 0z" fill-rule="evenodd"/><path fill="#ffffff" d="m41.142384 33.230343q-0.703125 0 -1.1875 -0.46875q-0.46875 -0.484375 -0.46875 -1.1875l0 -21.671875q0 -0.734375 0.46875 -1.1875q0.484375 -0.46875 1.1875 -0.46875q0.96875 0 1.484375 0.890625l10.015625 20.0625l-1.03125 0l9.765625 -20.0625q0.5 -0.890625 1.46875 -0.890625q0.703125 0 1.1718788 0.46875q0.484375 0.453125 0.484375 1.1875l0 21.671875q0 0.703125 -0.5 1.1875q-0.4843788 0.46875 -1.1562538 0.46875q-0.703125 0 -1.1875 -0.46875q-0.484375 -0.484375 -0.484375 -1.1875l0 -17.0625l0.640625 -0.15625l-8.375 17.078125q-0.546875 0.84375 -1.4375 0.84375q-1.0625 0 -1.546875 -1.0l-8.28125 -16.609375l0.640625 -0.15625l0 17.0625q0 0.703125 -0.484375 1.1875q-0.484375 0.46875 -1.1875 0.46875zm36.73656 0.125q-2.328125 0 -4.1875 -1.15625q-1.859375 -1.171875 -2.9375 -3.171875q-1.0625 -2.0 -1.0625 -4.53125q0 -2.53125 1.15625 -4.546875q1.171875 -2.015625 3.171875 -3.171875q2.0 -1.171875 4.5 -1.171875q2.5 0 4.484375 1.171875q1.984375 1.15625 3.140625 3.171875q1.171875 2.015625 1.171875 4.546875l-1.234375 0q0 2.53125 -1.078125 4.53125q-1.078125 2.0 -2.9375 3.171875q-1.84375 1.15625 -4.1875 1.15625zm0.640625 -2.875q1.640625 0 2.921875 -0.78125q1.28125 -0.78125 2.015625 -2.140625q0.734375 -1.375 0.734375 -3.0625q0 -1.734375 -0.734375 -3.09375q-0.734375 -1.359375 -2.015625 -2.140625q-1.28125 -0.78125 -2.921875 -0.78125q-1.59375 0 -2.890625 0.78125q-1.296875 0.78125 -2.046875 2.140625q-0.75 1.359375 -0.75 3.09375q0 1.6875 0.75 3.0625q0.75 1.359375 2.046875 2.140625q1.296875 0.78125 2.890625 0.78125zm7.171875 2.78125q-0.703125 0 -1.171875 -0.453125q-0.453125 -0.46875 -0.453125 -1.171875l0 -4.90625l0.59375 -3.390625l2.65625 1.15625l0 7.140625q0 0.703125 -0.46875 1.171875q-0.453125 0.453125 -1.15625 0.453125zm12.865662 0.09375q-2.234375 0 -4.140625 -0.6875q-1.90625 -0.6875 -2.96875 -1.734375q-0.484375 -0.515625 -0.40625 -1.171875q0.09375 -0.65625 0.640625 -1.078125q0.640625 -0.515625 1.25 -0.421875q0.625 0.078125 1.078125 0.546875q0.546875 0.609375 1.734375 1.140625q1.203125 0.53125 2.6875 0.53125q1.84375 0 2.8125 -0.609375q0.984375 -0.609375 1.015625 -1.5625q0.03125 -0.96875 -0.90625 -1.671875q-0.9375 -0.703125 -3.4375 -1.15625q-3.234375 -0.640625 -4.6875 -1.90625q-1.453125 -1.28125 -1.453125 -3.140625q0 -1.640625 0.953125 -2.703125q0.96875 -1.078125 2.46875 -1.59375q1.5 -0.53125 3.140625 -0.53125q2.109375 0 3.734375 0.671875q1.640625 0.671875 2.59375 1.84375q0.453125 0.515625 0.421875 1.078125q-0.03125 0.5625 -0.546875 0.9375q-0.515625 0.359375 -1.21875 0.234375q-0.703125 -0.125 -1.1875 -0.578125q-0.796875 -0.765625 -1.734375 -1.046875q-0.921875 -0.296875 -2.140625 -0.296875q-1.40625 0 -2.390625 0.484375q-0.96875 0.46875 -0.96875 1.40625q0 0.578125 0.296875 1.046875q0.3125 0.453125 1.203125 0.828125q0.90625 0.359375 2.640625 0.71875q2.390625 0.46875 3.78125 1.203125q1.390625 0.734375 2.0 1.71875q0.609375 0.96875 0.609375 2.25q0 1.484375 -0.78125 2.671875q-0.78125 1.171875 -2.3125 1.875q-1.515625 0.703125 -3.78125 0.703125zm14.079163 -6.53125l-1.984375 -2.171875l9.828125 -8.765625q0.46875 -0.453125 1.0625 -0.421875q0.59375 0.03125 1.015625 0.515625q0.4375 0.484375 0.40625 1.0625q-0.03125 0.578125 -0.5 1.015625l-9.828125 8.765625zm-1.5 6.40625q-0.703125 0 -1.140625 -0.421875q-0.4375 -0.4375 -0.4375 -1.140625l0 -21.859375q0 -0.703125 0.4375 -1.125q0.4375 -0.4375 1.140625 -0.4375q0.703125 0 1.125 0.4375q0.4375 0.421875 0.4375 1.125l0 21.859375q0 0.703125 -0.4375 1.140625q-0.421875 0.421875 -1.125 0.421875zm11.421875 -0.15625q-0.515625 0.40625 -1.140625 0.359375q-0.625 -0.046875 -1.03125 -0.5625l-6.5 -8.03125l2.234375 -2.109375l6.65625 8.203125q0.421875 0.5 0.375 1.09375q-0.046875 0.59375 -0.59375 1.046875zm7.1611557 0.15625q-0.703125 0 -1.171875 -0.453125q-0.453125 -0.46875 -0.453125 -1.171875l0 -14.25q0 -0.734375 0.453125 -1.171875q0.46875 -0.453125 1.171875 -0.453125q0.734375 0 1.1875 0.453125q0.453125 0.4375 0.453125 1.171875l0 14.25q0 0.703125 -0.453125 1.171875q-0.453125 0.453125 -1.1875 0.453125zm0.015625 -20.359375q-0.875 0 -1.5 -0.609375q-0.6093674 -0.625 -0.6093674 -1.5q0 -0.859375 0.6093674 -1.484375q0.625 -0.625 1.5 -0.625q0.859375 0 1.484375 0.625q0.625 0.625 0.625 1.484375q0 0.875 -0.625 1.5q-0.625 0.609375 -1.484375 0.609375zm22.476517 20.390625q-0.703125 0 -1.171875 -0.453125q-0.453125 -0.46875 -0.453125 -1.171875l0 -7.875q0 -1.828125 -0.671875 -2.96875q-0.671875 -1.15625 -1.8125 -1.71875q-1.125 -0.5625 -2.609375 -0.5625q-1.34375 0 -2.4375 0.546875q-1.078125 0.546875 -1.71875 1.453125q-0.640625 0.90625 -0.640625 2.09375l-2.015625 0q0 -2.015625 0.96875 -3.59375q0.984375 -1.59375 2.671875 -2.515625q1.703125 -0.921875 3.8125 -0.921875q2.21875 0 3.953125 0.9375q1.75 0.9375 2.75 2.765625q1.015625 1.828125 1.015625 4.484375l0 7.875q0 0.703125 -0.46875 1.171875q-0.453125 0.453125 -1.171875 0.453125zm-13.140625 0q-0.703125 0 -1.171875 -0.453125q-0.46875 -0.46875 -0.46875 -1.171875l0 -14.28125q0 -0.734375 0.46875 -1.171875q0.46875 -0.453125 1.171875 -0.453125q0.734375 0 1.171875 0.453125q0.453125 0.4375 0.453125 1.171875l0 14.28125q0 0.703125 -0.453125 1.171875q-0.4375 0.453125 -1.171875 0.453125zm27.4803 0.09375q-2.390625 0 -4.234375 -1.125q-1.84375 -1.140625 -2.90625 -3.140625q-1.046875 -2.0 -1.046875 -4.59375q0 -2.625 1.125 -4.625q1.140625 -2.0 3.125 -3.125q1.984375 -1.140625 4.578125 -1.140625q2.5625 0 4.546875 1.140625q1.984375 1.125 3.109375 3.125q1.140625 2.0 1.140625 4.625l-1.875 0q0 2.59375 -0.984375 4.59375q-0.96875 2.0 -2.671875 3.140625q-1.6875 1.125 -3.90625 1.125zm0.578125 7.140625q-2.265625 0 -4.25 -0.90625q-1.984375 -0.890625 -3.359375 -2.609375q-0.421875 -0.546875 -0.3125 -1.125q0.109375 -0.578125 0.625 -0.921875q0.578125 -0.390625 1.203125 -0.265625q0.625 0.125 1.0 0.640625q0.875 1.09375 2.1875 1.703125q1.3125 0.609375 2.96875 0.609375q1.546875 0 2.828125 -0.75q1.296875 -0.734375 2.0625 -2.171875q0.78125 -1.4375 0.78125 -3.515625l0 -4.546875l1.046875 -2.8125l2.078125 0.671875l0 6.90625q0 2.53125 -1.125 4.59375q-1.109375 2.0625 -3.109375 3.28125q-2.0 1.21875 -4.625 1.21875zm0.0625 -10.015625q1.671875 0 2.953125 -0.765625q1.28125 -0.765625 2.0 -2.109375q0.71875 -1.34375 0.71875 -3.109375q0 -1.765625 -0.71875 -3.125q-0.71875 -1.359375 -2.0 -2.125q-1.28125 -0.765625 -2.953125 -0.765625q-1.65625 0 -2.9375 0.765625q-1.28125 0.765625 -2.015625 2.125q-0.734375 1.359375 -0.734375 3.125q0 1.765625 0.734375 3.109375q0.734375 1.34375 2.015625 2.109375q1.28125 0.765625 2.9375 0.765625z" fill-rule="nonzero"/><path fill="#ffffff" d="m6.149606E-4 20.24533l16.574345 -20.20696l16.574345 0l-33.14869 40.41392z" fill-rule="evenodd"/></g></svg>