<svg version="1.1" viewBox="0.0 0.0 100.0 100.0" fill="none" stroke="none" stroke-linecap="square" stroke-miterlimit="10" xmlns:xlink="http://www.w3.org/1999/xlink" xmlns="http://www.w3.org/2000/svg"><clipPath id="p.0"><path d="m0 0l100.0 0l0 100.0l-100.0 0l0 -100.0z" clip-rule="nonzero"/></clipPath><g clip-path="url(#p.0)"><path fill="#000000" fill-opacity="0.0" d="m0 0l100.0 0l0 100.0l-100.0 0z" fill-rule="evenodd"/><path fill="#ffffff" d="m-0.02584567 12.513156l0 0c0 -6.9291935 5.6172214 -12.546415 12.546415 -12.546415l74.90251 0c3.3275146 0 6.5187454 1.3218507 8.871651 3.67476c2.352913 2.352909 3.674759 5.5441394 3.674759 8.8716545l0 74.90251c0 6.9291916 -5.617218 12.546417 -12.54641 12.546417l-74.90251 0l0 0c-6.929194 0 -12.546415 -5.6172256 -12.546415 -12.546417z" fill-rule="evenodd"/><path fill="#434343" d="m6.6655617 49.96441l0 0c0 -14.48806 11.744894 -26.232952 26.232956 -26.232952l0 0c6.957409 0 13.629864 2.7638206 18.5495 7.6834545c4.919632 4.919634 7.6834526 11.592089 7.6834526 18.549498l0 0c0 14.48806 -11.744892 26.232956 -26.232952 26.232956l0 0c-14.488062 0 -26.232956 -11.744896 -26.232956 -26.232956z" fill-rule="evenodd"/><path fill="#434343" d="m61.627827 49.96441l0 0c0 -14.48806 4.8665504 -26.232952 10.869747 -26.232952l0 0c2.8828354 0 5.6475983 2.7638206 7.6860733 7.6834545c2.0384674 4.919634 3.18367 11.592089 3.18367 18.549498l0 0c0 14.48806 -4.8665466 26.232956 -10.869743 26.232956l0 0c-6.0031967 0 -10.869747 -11.744896 -10.869747 -26.232956z" fill-rule="evenodd"/><path fill="#434343" d="m85.87449 49.96441l0 0c0 -14.48806 1.6576004 -26.232952 3.702362 -26.232952l0 0c0.98192596 0 1.9236298 2.7638206 2.617958 7.6834545c0.6943283 4.919634 1.0843964 11.592089 1.0843964 18.549498l0 0c0 14.48806 -1.6576004 26.232956 -3.7023544 26.232956l0 0c-0.98192596 0 -1.9236374 -2.7638245 -2.6179657 -7.6834564c-0.6943283 -4.919632 -1.0843964 -11.592087 -1.0843964 -18.5495z" fill-rule="evenodd"/></g></svg>