<svg version="1.1" viewBox="0.0 0.0 30.0 30.0" fill="none" stroke="none" stroke-linecap="square" stroke-miterlimit="10" xmlns:xlink="http://www.w3.org/1999/xlink" xmlns="http://www.w3.org/2000/svg"><clipPath id="p.0"><path d="m0 0l30.0 0l0 30.0l-30.0 0l0 -30.0z" clip-rule="nonzero"/></clipPath><g clip-path="url(#p.0)"><path fill="#000000" fill-opacity="0.0" d="m0 0l30.0 0l0 30.0l-30.0 0z" fill-rule="evenodd"/><path fill="#e69138" d="m8.82573 2.8251271l0 0c-4.137102 2.0970955 -4.7266917 9.247791 -1.3168855 15.971527c3.4098058 6.723736 9.527784 10.474369 13.664886 8.377274l-1.89925 -3.7450962l0 0c-2.06855 1.0485477 -5.659313 -1.8753643 -8.020193 -6.5307407c-2.36088 -4.6553764 -2.5978594 -9.27932 -0.5293083 -10.327868z" fill-rule="evenodd"/><path fill="#e69138" d="m11.426543 1.5067805l-3.0470238 1.5445355l0 0c-1.6828241 0.8530233 -2.1686378 3.2766082 -1.085094 5.413228c1.0835433 2.1366205 3.3261285 3.1771812 5.0089526 2.3241577l3.0470238 -1.5445356z" fill-rule="evenodd"/><path fill="#e69138" d="m19.847858 18.112621l-3.0470238 1.5445347l0 0c-1.6828241 0.8530235 -2.1686382 3.2766075 -1.0850945 5.413229c1.0835438 2.1366196 3.326128 3.1771793 5.008953 2.3241577l3.0470238 -1.5445366z" fill-rule="evenodd"/><path fill="#e69138" d="m12.170207 10.707286l0 0c-2.2594442 -1.1745167 -4.5898695 -1.1724501 -5.205149 0.004617691c-0.61528015 1.1770678 0.7175789 3.0834036 2.9770236 4.257921l0 0c0.049256325 -1.753087 0.8151741 -3.2183352 2.2281256 -4.262539z" fill-rule="evenodd"/><path fill="#e69138" d="m16.811125 19.858627l0 0c-0.3876953 2.5163517 -1.7666655 4.394577 -3.0800161 4.1951313c-1.3133507 -0.19944572 -2.0637426 -2.4010334 -1.6760473 -4.917385l0 0c1.4435863 0.9963665 3.0784826 1.2446404 4.7560635 0.7222538z" fill-rule="evenodd"/><path fill="#e69138" d="m14.368961 9.741653l0.8079748 -0.40956306l0 0c0.44623184 -0.22619438 -0.07041073 -2.1416345 -1.1539545 -4.2782545c-1.0835428 -2.1366203 -2.3236713 -3.6853259 -2.7699041 -3.4591308l-0.8079748 0.40956223z" fill-rule="evenodd"/><path fill="#e69138" d="m22.790209 26.34736l0.80797577 -0.40956116l0 0c0.44623184 -0.22619629 -0.07041168 -2.141636 -1.1539555 -4.2782555c-1.0835419 -2.1366196 -2.3236713 -3.6853256 -2.7699032 -3.4591312l-0.80797386 0.40956306z" fill-rule="evenodd"/></g></svg>