<svg version="1.1" viewBox="0.0 0.0 100.0 100.0" fill="none" stroke="none" stroke-linecap="square" stroke-miterlimit="10" xmlns:xlink="http://www.w3.org/1999/xlink" xmlns="http://www.w3.org/2000/svg"><clipPath id="p.0"><path d="m0 0l100.0 0l0 100.0l-100.0 0l0 -100.0z" clip-rule="nonzero"/></clipPath><g clip-path="url(#p.0)"><path fill="#434343" d="m0 0l100.0 0l0 100.0l-100.0 0z" fill-rule="evenodd"/><path fill="#ffffff" d="m0 0l50.0 0l0 0c27.614235 -1.2126596E-14 50.0 22.385763 50.0 50.0c0 27.614235 -22.385765 50.0 -50.0 50.0l-50.0 0z" fill-rule="evenodd"/><path fill="#434343" d="m-186.00787 32.522358l0 30.34111c0 0.66270447 -0.2632599 1.2982674 -0.7318573 1.7668724c-0.46861267 0.46860504 -1.1041718 0.7318649 -1.7668762 0.7318649l-12.493393 0c-1.6784668E-4 0 -2.89917E-4 -1.296997E-4 -2.89917E-4 -2.975464E-4l2.89917E-4 -35.338287l0 0c0 -1.6403198E-4 1.373291E-4 -2.9563904E-4 2.89917E-4 -2.9563904E-4l12.493103 2.9563904E-4l0 0c1.3800049 0 2.4987335 1.1187229 2.4987335 2.4987354z" fill-rule="evenodd"/><path fill="#434343" d="m-181.1811 35.246754l0 24.892319c0 0.45804596 -0.18196106 0.89733505 -0.5058441 1.2212219c-0.32388306 0.3238907 -0.76316833 0.50584793 -1.2212219 0.50584793l-5.49704 0c-1.7331238 0 -3.138092 -1.4049721 -3.138092 -3.138092l0 -22.070274c0 -1.73312 1.4049683 -3.138092 3.138092 -3.138092l5.49704 0l0 0c0.95384216 0 1.727066 0.7732353 1.727066 1.7270699z" fill-rule="evenodd"/><path fill="#434343" d="m-189.18947 52.6209c14.981628 -9.648296 26.62468 13.774281 41.606308 4.125984l-1.0015717 9.921261c-14.981628 9.648293 -26.62468 -13.774281 -41.606308 -4.125988z" fill-rule="evenodd"/><path fill="#434343" d="m-121.86674 48.055073l0 0l0 0c0.48448944 0.88127136 0.59693146 1.9150047 0.31259155 2.873787c-0.2843399 0.958786 -0.9421692 1.7640839 -1.8287735 2.2387428l-26.695282 14.291679c-1.1182404 0.59866333 -2.5201263 0.18292236 -3.131195 -0.9285965l-1.4406738 -2.6205177c-0.6110687 -1.111515 -0.19992065 -2.4978905 0.9183197 -3.0965576l26.69529 -14.291679l0 0c1.8462601 -0.9884186 4.16082 -0.30200958 5.1697235 1.5331421z" fill-rule="evenodd"/><path fill="#434343" d="m-182.37796 35.397335c11.637009 1.6047325 18.09526 12.37952 29.732285 13.984253l-3.909134 6.921894c-11.637024 -1.6047325 -18.09526 -12.37952 -29.732285 -13.984253z" fill-rule="evenodd"/><path fill="#434343" d="m-140.58276 51.133858l0 0l0 0c0.26312256 1.0733986 0.08506775 2.1894188 -0.49499512 3.1025505c-0.5800781 0.9131317 -1.5146332 1.5485764 -2.598114 1.7665443l-18.601196 3.7421265c-2.2562103 0.45389557 -4.529419 -0.9901619 -5.077347 -3.2253952l0 0l0 0c-0.5479431 -2.2352295 0.83688354 -4.4151993 3.0930939 -4.869095l18.601196 -3.7421227l0 0c2.2562103 -0.45389557 4.529419 0.9901619 5.077362 3.2253914z" fill-rule="evenodd"/><path fill="#434343" d="m-145.05777 61.10063l0 0l0 0c-0.54296875 1.7291298 -1.7409058 3.1430435 -3.3302765 3.9306946c-1.589386 0.7876587 -3.4400024 0.8845291 -5.14476 0.26931763l-32.876694 -11.86459c-3.5499725 -1.2811203 -5.511215 -5.238636 -4.380554 -8.839359l0 0l0 0c1.130661 -3.6007233 4.925064 -5.4811325 8.475052 -4.200012l32.87668 11.86459l0 0c3.5499725 1.2811203 5.511215 5.238636 4.380554 8.839359z" fill-rule="evenodd"/><path fill="#ffffff" d="m-139.72769 52.510372l0 0c0.4733734 0.87268066 -2.2220001 2.36837 -6.593521 3.658802c-4.3715057 1.290432 -9.3493805 2.0598145 -12.177017 1.8820915l1.5960999 -0.59168243l0 0c2.9571686 -0.22698975 7.3823547 -1.0914192 11.065735 -2.161621c3.6833801 -1.070198 5.8347626 -2.1165695 5.3798065 -2.6165962z" fill-rule="evenodd"/><path fill="#434343" d="m-149.39624 48.6822l0 0c-0.19134521 1.4959526 -2.5251007 2.433689 -5.2126007 2.09449c-2.6875 -0.33919907 -4.711029 -1.8268814 -4.519684 -3.322834l0 0c2.835785 1.4245567 6.6279755 1.903183 9.732285 1.228344z" fill-rule="evenodd"/><path fill="#434343" d="m153.49344 45.331844l0 0c0 -4.7661743 3.8637543 -8.629921 8.629913 -8.629921l0 0l0 0c2.288803 0 4.483856 0.90922165 6.1022797 2.527645c1.6184235 1.6184235 2.527649 3.8134804 2.527649 6.102276l0 31.905514c0 4.7661743 -3.8637543 8.629921 -8.629929 8.629921l0 0l0 0c-4.766159 0 -8.629913 -3.8637466 -8.629913 -8.629921z" fill-rule="evenodd"/><path fill="#434343" d="m203.3915 45.331844l0 0c0 -4.7661743 3.8637543 -8.629921 8.629929 -8.629921l0 0l0 0c2.288803 0 4.483856 0.90922165 6.1022797 2.527645c1.6184235 1.6184235 2.5276337 3.8134804 2.5276337 6.102276l0 31.905514c0 4.7661743 -3.863739 8.629921 -8.629913 8.629921l0 0l0 0c-4.7661743 0 -8.629929 -3.8637466 -8.629929 -8.629921z" fill-rule="evenodd"/><path fill="#434343" d="m194.87035 20.599396l0 0c0 -5.957718 4.8296814 -10.787402 10.787399 -10.787402l0 0c2.8610077 0 5.6048126 1.1365271 7.6278534 3.1595573c2.0230255 2.0230303 3.159546 4.7668486 3.159546 7.627845l0 0c0 5.957718 -4.8296814 10.787401 -10.787399 10.787401l0 0c-5.957718 0 -10.787399 -4.8296833 -10.787399 -10.787401z" fill-rule="evenodd"/><path fill="#434343" d="m157.01846 20.599396l0 0c0 -5.957718 4.8296967 -10.787402 10.787415 -10.787402l0 0c2.8609924 0 5.6048126 1.1365271 7.627838 3.1595573c2.0230255 2.0230303 3.1595612 4.7668486 3.1595612 7.627845l0 0c0 5.957718 -4.8296967 10.787401 -10.787399 10.787401l0 0c-5.957718 0 -10.787415 -4.8296833 -10.787415 -10.787401z" fill-rule="evenodd"/><path fill="#434343" d="m162.59921 50.942318l0 0c-1.8761749 -0.83184814 -2.727295 -3.0291328 -1.9010468 -4.9077682l0 0l0 0c0.39678955 -0.902153 1.1352234 -1.6086693 2.0528717 -1.9641228c0.9176483 -0.3554535 1.939331 -0.33072662 2.8403015 0.068740845l22.686111 10.058479c1.8761597 0.83184814 2.727295 3.029129 1.9010315 4.9077682l0 0l0 0c-0.82624817 1.8786354 -3.0169983 2.72723 -4.893158 1.8953819z" fill-rule="evenodd"/><path fill="#434343" d="m211.83545 50.93956l0 0c1.8767395 -0.83052826 2.7283478 -3.026741 1.9020844 -4.9053802l0 0l0 0c-0.3967743 -0.902153 -1.1353302 -1.608921 -2.0531616 -1.9648209c-0.9178467 -0.35590363 -1.9398041 -0.3317833 -2.8410492 0.067050934l-22.52652 9.968769c-1.8767548 0.83052826 -2.7283478 3.026741 -1.9020996 4.9053802l0 0l0 0c0.82624817 1.8786354 3.0174713 2.7282982 4.894226 1.8977699z" fill-rule="evenodd"/><path fill="#434343" d="m58.12109 47.037453l30.531246 -37.226547l30.531242 0l-61.06249 74.4531z" fill-rule="evenodd"/><path fill="#434343" d="m58.12073 52.971146l-25.653542 -31.291338l-25.653543 0l51.307087 62.582672z" fill-rule="evenodd"/><path fill="#434343" d="m52.900505 53.385746l9.874016 -12.047245l9.874016 0l-19.748032 24.09449z" fill-rule="evenodd"/></g></svg>