<svg version="1.1" viewBox="0.0 0.0 100.0 100.0" fill="none" stroke="none" stroke-linecap="square" stroke-miterlimit="10" xmlns:xlink="http://www.w3.org/1999/xlink" xmlns="http://www.w3.org/2000/svg"><clipPath id="p.0"><path d="m0 0l100.0 0l0 100.0l-100.0 0l0 -100.0z" clip-rule="nonzero"/></clipPath><g clip-path="url(#p.0)"><path fill="#000000" fill-opacity="0.0" d="m0 0l100.0 0l0 100.0l-100.0 0z" fill-rule="evenodd"/><path fill="#ffffff" d="m0.20475355 -0.0046593174l59.99254 0l0 0c10.553974 0 20.675678 4.192548 28.138462 11.655332c7.462784 7.462783 11.655327 17.584492 11.655327 28.138458l0 59.99254l-99.78633 0z" fill-rule="evenodd"/><path fill="#434343" d="m99.96402 41.710747l0 0c-15.626259 15.4518585 -37.490574 18.639961 -48.835308 7.1208267c-11.344734 -11.519131 -7.873871 -33.383442 7.752388 -48.8353l0 0c2.9564514 22.666328 18.503368 38.45224 41.08292 41.714474z" fill-rule="evenodd"/><path fill="#434343" d="m90.869934 49.02233l-61.05581 32.30181l-14.020935 -15.057816l36.646378 -58.51638z" fill-rule="evenodd"/><path fill="#434343" d="m77.02663 22.742718l0 0c-2.9909668 -3.2351227 -4.114929 -7.059434 -2.5104446 -8.541836l0 0c0.7705002 -0.71187496 2.0800095 -0.77744293 3.6404648 -0.18228054c1.5604477 0.59516335 3.244011 1.8023033 4.6803207 3.3558645l0 0c2.9909668 3.2351246 4.114929 7.059435 2.5104523 8.541836l0 0c-1.6044846 1.4824028 -5.3298264 0.061540604 -8.320793 -3.173584z" fill-rule="evenodd"/><path fill="#434343" d="m14.244016 71.79874l0 0c0 -5.9121704 4.792758 -10.704929 10.7049265 -10.704929l0 0c2.8391228 0 5.561962 1.1278381 7.569525 3.1354027c2.0075645 2.0075607 3.1353989 4.7304 3.1353989 7.5695267l0 0c0 5.912163 -4.792757 10.704926 -10.704924 10.704926l0 0c-5.9121685 0 -10.7049265 -4.7927628 -10.7049265 -10.704926z" fill-rule="evenodd"/><path fill="#434343" d="m23.40804 69.67439l0 0c9.404179 -2.4724197 19.6904 -0.12210083 27.65754 6.3195343c7.9671364 6.4416275 12.64814 16.19268 12.586258 26.218575l-13.146641 -0.92549896l0 0c-0.22629166 -5.6957703 -3.0383034 -11.244415 -7.5952034 -14.986809c-4.5569 -3.7423935 -10.330528 -5.2447815 -15.594484 -4.0579224z" fill-rule="evenodd"/></g></svg>