<svg version="1.1" viewBox="0.0 0.0 100.0 100.0" fill="none" stroke="none" stroke-linecap="square" stroke-miterlimit="10" xmlns:xlink="http://www.w3.org/1999/xlink" xmlns="http://www.w3.org/2000/svg"><clipPath id="p.0"><path d="m0 0l100.0 0l0 100.0l-100.0 0l0 -100.0z" clip-rule="nonzero"/></clipPath><g clip-path="url(#p.0)"><path fill="#000000" fill-opacity="0.0" d="m0 0l100.0 0l0 100.0l-100.0 0z" fill-rule="evenodd"/><path fill="#ffffff" d="m50.00525 100.002625l0 0c-27.614237 0 -50.0 -22.385765 -50.0 -50.0q0 -25.0 0 -50.0q25.0 0 50.0 0l0 0c27.614235 0 50.0 22.385763 50.0 50.0l0 0c0 27.614235 -22.385765 50.0 -50.0 50.0z" fill-rule="evenodd"/><path fill="#434343" d="m34.45071 57.682415l31.098507 0l0 0c4.1517334 0 8.133423 1.6492691 11.069138 4.584984c2.9357147 2.9357185 4.584984 6.917408 4.584984 11.069134l0 26.662323c0 2.89917E-4 -2.2888184E-4 5.187988E-4 -5.187988E-4 5.187988E-4l-62.40623 -5.187988E-4l0 0c-2.8800964E-4 0 -5.207062E-4 -2.3651123E-4 -5.207062E-4 -5.187988E-4l5.207062E-4 -26.661804l0 0c0 -8.645531 7.008587 -15.654118 15.654121 -15.654118z" fill-rule="evenodd"/><path fill="#434343" d="m26.66676 37.366333l0 0c0 -12.887558 10.446487 -23.334991 23.332882 -23.334991l0 0c6.1882668 0 12.123074 2.4585009 16.49884 6.8346605c4.375763 4.3761597 6.834038 10.311506 6.834038 16.50033l0 0c0 12.887562 -10.446484 23.334995 -23.332878 23.334995l0 0c-12.8863945 0 -23.332882 -10.447433 -23.332882 -23.334995z" fill-rule="evenodd"/><path fill="#434343" d="m30.149307 41.681103c0.021871567 1.3560791 0.8451443 3.4146957 -0.33070946 3.7559052c-1.1758518 0.3412056 -5.296587 -0.42869568 -6.724409 -1.708664c-1.4278221 -1.2799644 -1.8871384 -3.961502 -1.8425198 -5.9711266c0.044620514 -2.0096245 1.561243 -4.1338577 2.1102371 -6.0866146c0.54899406 -1.952755 0.32720947 -3.3832016 1.1837273 -5.629921c0.8565178 -2.2467194 2.4426937 -6.140421 3.9553795 -7.8503933c1.5126858 -1.7099743 2.4020119 -1.0962391 5.120737 -2.4094496c2.7187195 -1.3132105 6.6622887 -4.819335 11.191601 -5.469816c4.5293083 -0.6504812 11.952316 0.43744564 15.984249 1.5669289c4.0319366 1.1294842 5.6583557 3.4846897 8.207352 5.2099733c2.548996 1.7252846 5.6181107 2.805338 7.0866165 5.141733c1.4684982 2.3363953 1.3731384 6.2064743 1.7244034 8.87664c0.35127258 2.670168 0.53718567 4.8657055 0.3832016 7.1443577c-0.15397644 2.2786522 0.17279053 5.1784782 -1.3070831 6.5275574c-1.4798813 1.349083 -6.4413834 2.0441818 -7.5721817 1.5669289c-1.1307907 -0.47725296 0.4496994 -2.7812767 0.7874069 -4.4304466c0.33770752 -1.6491661 1.6062927 -2.8512688 1.2388458 -5.4645653c-0.36745453 -2.6132965 -1.3324585 -7.3836403 -3.443573 -10.215223c-2.1111145 -2.831583 -5.643921 -5.388014 -9.223099 -6.7742786c-3.579174 -1.3862629 -8.465878 -1.9794388 -12.251968 -1.5433064c-3.786087 0.43613243 -7.596237 1.7244091 -10.464565 4.1601048c-2.868328 2.4356956 -5.6994743 7.9168854 -6.745407 10.454067c-1.0459309 2.5371857 0.3145237 3.2440948 0.4698162 4.7690315c0.15529251 1.5249329 0.4400711 3.0244942 0.46194267 4.380577z" fill-rule="evenodd"/></g></svg>