<svg version="1.1" viewBox="0.0 0.0 100.0 100.0" fill="none" stroke="none" stroke-linecap="square" stroke-miterlimit="10" xmlns:xlink="http://www.w3.org/1999/xlink" xmlns="http://www.w3.org/2000/svg"><clipPath id="p.0"><path d="m0 0l100.0 0l0 100.0l-100.0 0l0 -100.0z" clip-rule="nonzero"/></clipPath><g clip-path="url(#p.0)"><path fill="#000000" fill-opacity="0.0" d="m0 0l100.0 0l0 100.0l-100.0 0z" fill-rule="evenodd"/><path fill="#ffffff" d="m3.1713355 13.0599785l0 0c0 -5.4722133 4.436105 -9.9083185 9.9083185 -9.9083185l73.92337 0c2.6278458 0 5.1480637 1.0439088 7.006233 2.9020789c1.8581696 1.85817 2.9020844 4.37839 2.9020844 7.0062394l0 73.92337c0 5.4722137 -4.4361115 9.908318 -9.908318 9.908318l-73.92337 0c-5.4722133 0 -9.9083185 -4.436104 -9.9083185 -9.908318z" fill-rule="evenodd"/><path fill="#ffffff" d="m7.260466 5.609567l0 0c0 -1.4877687 4.507257 -2.9146018 12.530228 -3.9666128c8.022968 -1.0520111 18.904451 -1.6430248 30.250643 -1.6430248l0 0c23.62722 0 42.78087 2.5115204 42.78087 5.6096377l0 0c0 3.0981174 -19.153648 5.6096377 -42.78087 5.6096377l0 0c-23.627222 0 -42.78087 -2.5115204 -42.78087 -5.6096377z" fill-rule="evenodd"/><path fill="#ffffff" d="m7.260466 94.45836l0 0c0 -1.4877701 4.507257 -2.9146042 12.530228 -3.9666138c8.022968 -1.0520096 18.904451 -1.6430283 30.250643 -1.6430283l0 0c23.62722 0 42.78087 2.5115204 42.78087 5.609642l0 0c0 3.098114 -19.153648 5.6096344 -42.78087 5.6096344l0 0c-23.627222 0 -42.78087 -2.5115204 -42.78087 -5.6096344z" fill-rule="evenodd"/><path fill="#ffffff" d="m94.39438 92.80253l0 0c-1.4877701 0 -2.9146042 -4.5072556 -3.9666138 -12.530228c-1.0520096 -8.0229645 -1.6430206 -18.90445 -1.6430206 -30.25064l0 0c0 -23.627222 2.5115204 -42.78087 5.6096344 -42.78087l0 0c3.0981216 0 5.609642 19.153646 5.609642 42.78087l0 0c0 23.62722 -2.5115204 42.78087 -5.609642 42.78087z" fill-rule="evenodd"/><path fill="#ffffff" d="m5.609508 92.80253l0 0c-1.4877687 0 -2.9146018 -4.5072556 -3.966613 -12.530228c-1.0520111 -8.0229645 -1.6430249 -18.90445 -1.6430249 -30.25064l0 0c0 -23.627222 2.5115204 -42.78087 5.6096377 -42.78087l0 0c3.0981174 0 5.6096377 19.153646 5.6096377 42.78087l0 0c0 23.62722 -2.5115204 42.78087 -5.6096377 42.78087z" fill-rule="evenodd"/><path fill="#434343" d="m24.081366 31.496063l51.842514 18.503937l-51.842514 18.503937z" fill-rule="evenodd"/></g></svg>