<svg version="1.1" viewBox="0.0 0.0 100.0 100.0" fill="none" stroke="none" stroke-linecap="square" stroke-miterlimit="10" xmlns:xlink="http://www.w3.org/1999/xlink" xmlns="http://www.w3.org/2000/svg"><clipPath id="p.0"><path d="m0 0l100.0 0l0 100.0l-100.0 0l0 -100.0z" clip-rule="nonzero"/></clipPath><g clip-path="url(#p.0)"><path fill="#000000" fill-opacity="0.0" d="m0 0l100.0 0l0 100.0l-100.0 0z" fill-rule="evenodd"/><path fill="#ffffff" d="m8.738991 48.235806c-0.16797829 -1.2327232 0 -3.8814545 0 -5.8005257c0 -1.9190712 0 -4.21566 0 -5.713909c0 -1.4982529 -0.06999111 -2.3512688 0 -3.2755928c0.06999111 -0.9243202 0.15398121 -1.472002 0.41994762 -2.27034c0.26596737 -0.79833794 0.7559061 -1.7493439 1.1758528 -2.5196857c0.41994762 -0.7703419 0.75546837 -1.3740158 1.343832 -2.1023617c0.5883646 -0.7283478 1.3460197 -1.5958004 2.1863518 -2.2677174c0.840333 -0.67191505 1.86133 -1.3013992 2.8556442 -1.7637787c0.9943123 -0.46237946 2.0874882 -0.78608894 3.1102352 -1.0105c1.022747 -0.2244091 0.5752411 -0.22397041 3.026247 -0.33595657c2.451006 -0.11198616 8.038494 -0.26596832 11.6797905 -0.33595848c3.6412926 -0.069992065 6.4706917 -0.069992065 10.16798 -0.0839901c3.6972847 -0.013998032 8.402447 -0.027996063 12.015747 0c3.6132965 0.027996063 6.582676 0.11198616 9.66404 0.1679802c3.0813675 0.055992126 6.7230988 0.09798622 8.82415 0.16797829c2.1010513 0.069992065 2.6058578 0.069992065 3.7821503 0.25196838c1.1762924 0.18197823 2.1552963 0.3775158 3.275589 0.83989525c1.1203003 0.46237946 2.3954544 1.1220474 3.4461975 1.9343834c1.0507431 0.81233597 2.0179367 1.7633419 2.8582687 2.9396324c0.84033203 1.1762905 1.7357788 2.5634289 2.1837234 4.1181107c0.44794464 1.5546799 0.4199524 2.8569565 0.50393677 5.2099724c0.083992004 2.3530197 0 6.5551186 0 8.908138c0 2.353016 0.083992004 3.8792648 0 5.2099724c-0.083984375 1.3307076 -0.069992065 2.199913 -0.50393677 2.7742767c-0.4339447 0.5743675 -1.4973755 0.4759407 -2.099739 0.67191696c-0.60235596 0.19597626 -0.716095 0.3359604 -1.5144348 0.50393677c-0.7983322 0.1679802 -0.13867188 0.25196838 -3.275589 0.50393677c-3.136917 0.25196838 -10.293526 0.71391296 -15.545929 1.0078735c-5.252407 0.2939644 -9.469818 0.61592484 -15.968506 0.75590897c-6.4986877 0.13998032 -16.93132 0.5599289 -23.023623 0.08398819c-6.0923004 -0.4759407 -10.266842 -1.7773399 -13.530184 -2.9396324c-3.263342 -1.1622925 -4.873578 -3.0958023 -6.0498686 -4.0341225c-1.1762905 -0.93832016 -0.83989525 -0.36307907 -1.0078745 -1.5957985z" fill-rule="evenodd"/><path fill="#ffffff" d="m8.739283 51.830727c-0.12598419 1.8604546 0 3.8814507 0 5.8005257c0 1.9190712 0 4.21566 0 5.713909c0 1.4982529 -0.06999111 2.351265 0 3.275589c0.06999111 0.92432404 0.15398121 1.4720078 0.41994762 2.27034c0.26596642 0.79833984 0.75590515 1.7493439 1.1758528 2.5196838c0.41994762 0.7703476 0.75546837 1.3740158 1.343832 2.1023636c0.5883646 0.7283478 1.3460197 1.5958023 2.1863518 2.2677155c0.840333 0.6719208 1.86133 1.3014069 2.8556423 1.7637863c0.9943142 0.46237946 2.08749 0.78608704 3.1102371 1.010498c1.022747 0.22440338 0.5752411 0.2239685 3.026247 0.33595276c2.451006 0.11199188 8.038494 0.26596832 11.679789 0.3359604c3.6412964 0.069992065 6.4706917 0.069992065 10.16798 0.083992004c3.6972885 0.01399231 8.402451 0.027992249 12.015747 0c3.6133003 -0.027999878 6.5826797 -0.11199188 9.66404 -0.16798401c3.0813675 -0.055992126 6.7230988 -0.097984314 8.82415 -0.16797638c2.1010513 -0.069992065 2.6058655 -0.069992065 3.7821503 -0.25196838c1.1762924 -0.18197632 2.1552963 -0.3775177 3.275589 -0.83989716c1.1203003 -0.46237946 2.3954544 -1.1220474 3.4461975 -1.9343796c1.0507431 -0.8123398 2.0179367 -1.7633438 2.8582687 -2.9396362c0.84033203 -1.1762848 1.7357788 -2.5634308 2.1837234 -4.1181107c0.44794464 -1.5546799 0.4199524 -2.8569565 0.50393677 -5.2099724c0.083992004 -2.353016 0 -6.5551186 0 -8.908134c0 -2.3530197 0.083992004 -3.8792648 0 -5.209976c-0.083984375 -1.3307076 -0.069984436 -2.1999092 -0.50393677 -2.7742767c-0.4339447 -0.5743675 -1.4973755 -0.4759407 -2.0997314 -0.67191696c-0.6023636 -0.19597626 -0.7161026 -0.33595657 -1.5144424 -0.50393677c-0.7983322 -0.16797638 -0.13866425 -0.25196838 -3.275589 -0.50393677c-3.136917 -0.25196838 -10.293526 -0.71390915 -15.545929 -1.0078735c-5.252407 -0.2939644 -9.469818 -0.61592484 -15.968506 -0.75590515c-6.4986877 -0.13998413 -16.945316 -0.2125969 -23.02362 -0.08398819c-6.0783024 0.1286087 -10.140858 0.32108307 -13.446195 0.8556404c-3.305337 0.53455734 -5.1955376 1.0660553 -6.385827 2.3517075c-1.1902885 1.2856522 -0.62992096 3.501751 -0.75590515 5.3622055z" fill-rule="evenodd"/><path fill="#151814" d="m41.608982 37.452812l22.551182 12.598427l-22.551182 12.598427z" fill-rule="evenodd"/><path fill="#151814" d="m-212.13387 26.60105l74.39371 0l0 46.866142l-74.39371 0z" fill-rule="evenodd"/></g></svg>